<svg width="794" height="159" viewBox="0 0 794 159" fill="none" xmlns="http://www.w3.org/2000/svg">
<path d="M187 52V148H165V7.99999H183.8L240.8 103.4L297 7.99999H315.8L316 148H294L293.8 51.2L245.6 131.6H235.2L187 52ZM409.816 31.2L359.016 148H335.416L398.616 7.99999H421.216L484.616 148H460.616L409.816 31.2ZM588.863 101.6L621.463 148H596.663L567.263 106.2C565.063 106.4 562.463 106.4 560.063 106.4H526.863V148H504.063V87H559.263C583.463 87 596.063 76 596.063 57.4C596.063 38.6 583.463 27.8 559.263 27.8H504.063V7.99999H560.063C596.663 7.99999 619.063 26.6 619.063 57.4C619.063 78.8 608.063 94.4 588.863 101.6ZM703.566 31.2L652.766 148H629.166L692.366 7.99999H714.966L778.366 148H754.366L703.566 31.2Z" fill="#131416"/>
<path d="M74.8 31.2L24 148H0.4L63.6 7.99999H86.2L149.6 148H125.6L74.8 31.2Z" fill="#131416"/>
<path d="M73.8602 98.3339L53.3138 68.7352L96.3734 70.2022L73.8602 98.3339Z" fill="#131416"/>
</svg>
