<svg width="608" height="159" viewBox="0 0 608 159" fill="none" xmlns="http://www.w3.org/2000/svg">
<path d="M74.8 31.2L24 148H0.4L63.6 7.99999H86.2L149.6 148H125.6L74.8 31.2ZM253.847 101.6L286.447 148H261.647L232.247 106.2C230.047 106.4 227.447 106.4 225.047 106.4H191.847V148H169.047V87H224.247C248.447 87 261.047 76 261.047 57.4C261.047 38.6 248.447 27.8 224.247 27.8H169.047V7.99999H225.047C261.647 7.99999 284.047 26.6 284.047 57.4C284.047 78.8 273.047 94.4 253.847 101.6ZM314.75 78H337.55V128.2H373.55C406.55 128.2 427.75 108.2 427.75 78C427.75 47.8 406.55 27.8 373.55 27.8H314.75V7.99999H374.75C419.95 7.99999 450.75 36.2 450.75 78C450.75 119.8 419.95 148 374.75 148H314.75V78ZM531.831 31.2L481.031 148H457.431L520.631 7.99999H543.231L606.631 148H582.631L531.831 31.2Z" fill="white"/>
<path d="M73.8602 98.3339L53.3138 68.7352L96.3734 70.2022L73.8602 98.3339Z" fill="white"/>
</svg>
