<svg width="618" height="189" viewBox="0 0 618 189" fill="none" xmlns="http://www.w3.org/2000/svg">
<path d="M253.8 117.6L286.4 164H261.6L232.2 122.2C230 122.4 227.4 122.4 225 122.4H191.8V164H169V103H224.2C248.4 103 261 92 261 73.4C261 54.6 248.4 43.8 224.2 43.8H169V24H225C261.6 24 284 42.6 284 73.4C284 94.8 273 110.4 253.8 117.6ZM314.703 94H337.503V144.2H373.503C406.503 144.2 427.703 124.2 427.703 94C427.703 63.8 406.503 43.8 373.503 43.8H314.703V24H374.703C419.903 24 450.703 52.2 450.703 94C450.703 135.8 419.903 164 374.703 164H314.703V94ZM531.784 47.2L480.984 164H457.384L520.584 24H543.184L606.584 164H582.584L531.784 47.2Z" fill="white"/>
<path d="M146.295 94.4848L36.6087 176.336L36.5712 12.6837L146.295 94.4848Z" fill="white"/>
</svg>
